<svg width="153" height="423" viewBox="0 0 153 423" fill="none" xmlns="http://www.w3.org/2000/svg">
<path d="M27.1165 230.748C27.7536 229.423 28.0925 227.974 28.1093 226.504C28.126 225.034 27.8202 223.578 27.2135 222.239C26.6068 220.9 25.7139 219.711 24.5976 218.754C23.4813 217.797 22.1688 217.097 20.7527 216.703L18.5277 181.037L3.69196 192.206L8.07928 224.362C7.57421 226.785 7.9755 229.309 9.20709 231.456C10.4387 233.603 12.4151 235.223 14.7617 236.011C17.1082 236.798 19.662 236.697 21.9391 235.727C24.2162 234.757 26.0583 232.985 27.1165 230.748V230.748Z" fill="#FFB8B8"/>
<path d="M91.7897 370.943L103.575 374.322L122.217 330.474L104.824 325.487L91.7897 370.943Z" fill="#FFB8B8"/>
<path d="M123.165 391.781L86.1265 381.161L90.2297 366.851L112.958 373.368C116.753 374.456 119.961 377.008 121.875 380.461C123.789 383.914 124.253 387.986 123.165 391.781V391.781V391.781Z" fill="#2F2E41"/>
<path d="M72.9067 411.225L60.6467 411.224L54.8137 363.936L72.9087 363.937L72.9067 411.225Z" fill="#FFB8B8"/>
<path d="M51.8893 407.721H75.5331V422.608H37.0024C37.0024 420.653 37.3875 418.717 38.1356 416.911C38.8838 415.105 39.9803 413.464 41.3627 412.081C42.745 410.699 44.3862 409.602 46.1923 408.854C47.9985 408.106 49.9343 407.721 51.8893 407.721Z" fill="#2F2E41"/>
<path d="M39 218.426C39 218.426 32 246.426 44 303.426L53 401.426L76 402.426L73 296.426L81 252.426L101 313.426L94 356.426L111 364.426L130 305.426C130 305.426 128 223.426 120 213.426L39 218.426Z" fill="#2F2E41"/>
<path d="M68.0433 58.9278C81.608 58.9278 92.6044 47.9315 92.6044 34.3668C92.6044 20.8021 81.608 9.80579 68.0433 9.80579C54.4787 9.80579 43.4823 20.8021 43.4823 34.3668C43.4823 47.9315 54.4787 58.9278 68.0433 58.9278Z" fill="#FFB8B8"/>
<path d="M55 71.6652C55 71.6652 53.5 74.9637 71.5 72.9259C89.5 70.8881 93.5 64.9259 93.5 64.9259L125 203.104L123 215.331L37 220.426V203.104L52 111.403L55 71.6652Z" fill="#E6E6E6"/>
<path d="M62.3628 216.933L35.1006 216.418L35.0127 216.038C31.4931 197.091 31.833 177.628 36.0122 158.815C41.518 134.434 29.0071 101.367 23.3725 88.2823C22.7091 86.7259 22.6302 84.9823 23.1504 83.3723C23.6705 81.7624 24.7547 80.3945 26.2033 79.5206L45.5012 67.9424C46.8143 67.1545 48.2934 66.6843 49.8205 66.5695C51.3475 66.4547 52.8803 66.6985 54.2965 67.2812C55.7126 67.864 56.973 68.7697 57.977 69.9261C58.9809 71.0825 59.7007 72.4575 60.0788 73.9415L63.4529 87.1778C78.9927 103.888 77.9031 138.161 74.2451 163.996C71.6297 181.791 67.696 199.366 62.4763 216.578L62.3628 216.933Z" fill="#2F2E41"/>
<path d="M31.5 76.9259L29.1418 78.5394C23.8145 82.1608 19.8137 87.4209 17.746 93.5217C16.5459 97.0787 15.6277 100.725 15 104.426C13 116.426 4 167.426 4 167.426L0 217.426L22 212.426L32 154.426L42 118.426L31.5 76.9259Z" fill="#2F2E41"/>
<path d="M109.737 217.171L109.53 216.596C108.1 212.632 74.7261 119.261 90.4885 86.336L88.9443 70.8947C88.7788 69.2405 89.0268 67.5712 89.666 66.0367C90.3052 64.5021 91.3156 63.1504 92.6064 62.1028C93.8973 61.0553 95.4281 60.3449 97.0613 60.0353C98.6946 59.7257 100.379 59.8267 101.964 60.3292L126.082 67.9757C127.077 68.2863 127.946 68.9104 128.558 69.755C129.17 70.5996 129.492 71.6194 129.477 72.6622C129.377 81.5382 128.886 104.16 126.496 122.49C123.54 145.151 133.393 201.771 133.492 202.34L133.551 202.676L109.737 217.171Z" fill="#2F2E41"/>
<path d="M99.1079 192.345C99.1363 190.875 99.4867 189.429 100.134 188.11C100.782 186.79 101.711 185.628 102.856 184.706C104.001 183.784 105.335 183.125 106.762 182.774C108.19 182.423 109.677 182.39 111.119 182.676L129.181 151.842L137.39 168.499L118.98 195.226C118.338 197.616 116.843 199.688 114.775 201.05C112.708 202.411 110.214 202.967 107.764 202.612C105.315 202.257 103.081 201.015 101.485 199.123C99.8898 197.231 99.0439 194.819 99.1079 192.345V192.345Z" fill="#FFB8B8"/>
<path d="M122.5 67.9259L123.793 68.2243C125.393 68.5935 126.875 69.3547 128.107 70.4395C129.339 71.5243 130.282 72.8986 130.851 74.4386L153 134.426L127 191.426L117.5 167.926L129.5 141.926L108 114.426L122.5 67.9259Z" fill="#2F2E41"/>
<path d="M92.9379 37.762C94.3488 34.1207 95.4049 30.3517 96.0914 26.5075C96.773 22.6414 96.3181 18.6605 94.7818 15.0478C93.1312 11.8883 90.8219 9.11971 88.0098 6.929C86.0822 5.28966 84.0587 3.76672 81.9498 2.36827C76.0075 -1.57273 74.7143 2.01327 67.5866 1.20664C60.459 0.400015 52.4719 -1.64997 46.7589 2.60438C43.0639 5.41088 40.2901 9.25572 38.792 13.6472C37.294 18.0387 37.14 22.7773 38.3496 27.2568C39.9423 32.6763 38.6747 34.4626 43.5922 37.3918C43.5894 32.5144 45.4447 27.8191 48.7808 24.261C52.1882 20.6906 56.7982 18.51 61.7198 18.1408C65.5101 17.8661 69.2853 18.6748 72.9964 19.4786C76.5971 20.2585 80.2947 21.0782 83.347 23.1062C88.4054 26.4671 90.7769 32.4693 92.8618 38.0995" fill="#2F2E41"/>
<circle cx="56.5" cy="32.5" r="2.5" fill="black"/>
<circle cx="72.5" cy="32.5" r="2.5" fill="black"/>
<path d="M54 44L55.5 45.5L57.5 46.5L59.5 47.5L62.5 48.5H65H68L71 48L74 47L76 45.5L77 44" stroke="black"/>
</svg>
